<?xml version="1.0" standalone="no"?>
<!DOCTYPE svg PUBLIC "-//W3C//DTD SVG 20010904//EN"
 "http://www.w3.org/TR/2001/REC-SVG-20010904/DTD/svg10.dtd">
<svg version="1.0" xmlns="http://www.w3.org/2000/svg"
 width="800.000000pt" height="800.000000pt" viewBox="0 0 800.000000 800.000000"
 preserveAspectRatio="xMidYMid meet">
<metadata>
Created by potrace 1.11, written by Peter Selinger 2001-2013
</metadata>
<g transform="translate(0.000000,800.000000) scale(0.100000,-0.100000)"
fill="#000000" stroke="none">
<path d="M3779 7696 c-2 -2 -44 -7 -94 -10 -84 -6 -114 -9 -190 -21 -16 -3
-48 -7 -70 -10 -105 -15 -355 -71 -485 -111 -123 -37 -353 -121 -417 -152 -10
-5 -49 -24 -88 -42 -130 -61 -148 -71 -290 -153 -116 -67 -382 -248 -405 -276
-3 -3 -21 -18 -40 -33 -109 -83 -299 -263 -405 -383 -33 -37 -65 -73 -70 -79
-9 -9 -114 -141 -138 -171 -4 -5 -16 -21 -27 -34 -11 -13 -20 -27 -20 -31 0
-3 -8 -15 -18 -26 -19 -21 -121 -174 -155 -233 -63 -108 -147 -268 -147 -278
0 -7 -4 -13 -10 -13 -5 0 -10 -8 -10 -18 0 -10 -4 -22 -9 -27 -13 -15 -87
-195 -131 -320 -82 -234 -149 -510 -176 -723 -3 -26 -7 -58 -9 -72 -14 -108
-20 -226 -20 -415 0 -225 8 -354 30 -505 3 -19 8 -53 11 -75 6 -50 74 -367 80
-377 3 -5 7 -19 10 -32 6 -37 81 -258 121 -360 105 -267 280 -582 452 -813 25
-34 55 -73 65 -88 11 -14 32 -40 47 -58 15 -17 37 -43 49 -57 120 -142 330
-352 420 -420 18 -14 38 -30 44 -35 12 -12 138 -110 177 -138 13 -9 65 -44
114 -77 50 -33 95 -64 102 -70 7 -5 14 -10 17 -10 2 0 46 -24 98 -54 51 -29
129 -71 173 -92 44 -21 82 -42 83 -46 2 -4 10 -8 18 -8 7 0 37 -11 66 -24 138
-63 401 -156 473 -167 6 -1 21 -6 35 -11 14 -6 41 -14 60 -18 75 -17 87 -20
135 -31 28 -6 57 -13 65 -16 8 -3 31 -7 50 -9 33 -3 47 -5 130 -18 146 -23
272 -31 515 -31 252 1 415 7 415 16 0 3 15 6 33 7 17 1 41 4 53 6 20 4 112 17
144 20 9 1 20 5 25 8 6 3 33 9 60 13 28 5 55 9 60 11 6 1 22 4 37 7 15 3 31 8
35 10 5 3 25 8 46 11 21 3 46 10 55 15 9 5 19 9 22 9 20 0 137 36 177 54 11 6
26 7 32 4 6 -4 11 -2 11 3 0 6 6 11 14 11 7 0 27 7 42 15 16 8 36 15 44 15 9
0 20 4 25 8 6 5 26 15 45 22 19 8 64 27 100 43 36 16 71 30 78 30 6 0 12 3 12
7 0 12 51 31 63 24 7 -4 9 -4 5 1 -4 4 16 20 45 34 28 14 54 28 57 31 15 15
92 50 100 45 6 -4 9 -3 8 2 -2 4 0 8 4 8 4 0 14 9 22 20 9 11 16 16 16 12 0
-5 7 -1 16 8 9 9 23 14 31 11 8 -3 11 -2 8 4 -8 13 41 43 56 34 8 -4 9 -3 5 5
-4 6 0 14 11 18 10 4 23 12 30 17 34 30 43 36 53 36 5 0 10 4 10 9 0 5 12 16
26 26 17 11 23 12 18 4 -4 -8 12 5 36 29 24 23 45 40 47 38 3 -2 23 14 46 35
23 21 48 39 55 39 7 0 11 4 8 8 -3 5 5 15 16 23 30 20 67 53 149 132 39 37 75
64 81 61 7 -4 8 -2 4 4 -4 6 14 33 41 61 106 110 150 160 145 165 -3 3 3 8 12
12 9 3 16 10 16 15 0 4 12 21 28 37 15 16 35 41 46 55 10 15 22 24 27 21 5 -3
6 1 4 9 -3 7 4 24 15 37 12 13 30 39 41 57 11 18 25 33 30 33 6 0 8 4 5 9 -3
4 3 16 14 26 11 10 20 22 20 27 0 11 51 81 63 86 4 2 5 7 2 12 -3 5 1 15 9 22
7 8 17 24 20 36 4 12 12 22 17 22 5 0 9 7 9 16 0 8 4 12 10 9 6 -3 7 1 4 9 -3
9 -1 16 6 16 6 0 9 4 6 9 -3 5 2 19 12 32 18 24 108 206 132 266 7 18 15 31
19 29 3 -2 7 6 7 18 1 12 11 43 23 68 11 26 21 53 21 60 0 8 5 19 10 24 6 6
12 19 14 30 4 17 27 88 46 139 7 17 31 98 35 115 24 105 40 166 45 170 3 3 5
14 6 25 1 26 11 82 25 142 6 27 12 64 15 83 8 63 16 115 19 140 20 130 27 561
12 745 -11 132 -13 142 -37 285 -28 164 -108 492 -128 525 -4 6 -7 17 -9 25
-3 22 -75 210 -117 308 -207 481 -592 998 -983 1319 -12 10 -31 26 -43 36
-154 129 -406 297 -595 397 -44 23 -89 47 -100 53 -11 6 -22 12 -25 12 -3 0
-45 19 -93 43 -49 23 -91 42 -95 42 -4 0 -41 14 -82 31 -124 51 -375 129 -496
154 -11 2 -39 8 -64 14 -70 16 -268 49 -335 56 -33 4 -78 9 -100 12 -48 5
-531 14 -536 9z"/>
</g>
</svg>
